<?xml version="1.0" encoding="UTF-8"?>
<svg id="Layer_1" data-name="Layer 1" xmlns="http://www.w3.org/2000/svg" xmlns:xlink="http://www.w3.org/1999/xlink" viewBox="0 0 868.49 189">
  <defs>
    <style>
      .cls-1 {
        fill: url(#linear-gradient);
      }
    </style>
    <linearGradient id="linear-gradient" x1="0" y1="94.5" x2="868.49" y2="94.5" gradientUnits="userSpaceOnUse">
      <stop offset="0" stop-color="#128040"/>
      <stop offset="1" stop-color="#0daa4b"/>
    </linearGradient>
  </defs>
  <path class="cls-1" d="M25.71,47.03c3.53-.67,7.41-1.2,11.65-1.58,4.24-.38,8.46-.57,12.66-.57s8.76,.36,13.17,1.07c4.41,.71,8.38,2.14,11.91,4.28,3.53,2.14,6.4,5.12,8.63,8.95,2.22,3.82,3.34,8.8,3.34,14.93,0,5.38-.97,9.98-2.9,13.8-1.93,3.82-4.49,6.97-7.69,9.45-3.19,2.48-6.83,4.28-10.9,5.42-4.08,1.13-8.3,1.7-12.66,1.7h-2.02c-.93,0-1.89-.02-2.9-.06-1.01-.04-2-.1-2.96-.19-.97-.08-1.66-.17-2.08-.25v30.37H25.71V47.03Zm25.7,12.73c-1.68,0-3.28,.06-4.79,.19-1.51,.13-2.73,.27-3.65,.44v28.6c.33,.08,.84,.17,1.51,.25,.67,.08,1.39,.15,2.14,.19,.76,.04,1.49,.06,2.21,.06h1.58c2.27,0,4.51-.21,6.74-.63,2.23-.42,4.22-1.2,5.99-2.33,1.76-1.13,3.17-2.71,4.22-4.72,1.05-2.02,1.58-4.66,1.58-7.94,0-2.77-.5-5.06-1.51-6.87-1.01-1.81-2.33-3.25-3.97-4.35-1.64-1.09-3.51-1.85-5.61-2.27-2.1-.42-4.24-.63-6.43-.63Zm71.06,74.59v-38.56c0-2.52-.17-4.56-.5-6.11-.34-1.55-.78-2.77-1.32-3.65-.55-.88-1.22-1.47-2.02-1.76-.8-.29-1.62-.44-2.46-.44-1.43,0-2.75,.46-3.97,1.39-1.22,.92-2.04,2.1-2.46,3.53v45.61h-15.12v-63h11.97l1.76,6.93h.38c1.26-2.43,3.11-4.43,5.54-5.98,2.44-1.55,5.29-2.33,8.57-2.33,2.77,0,5.42,.67,7.94,2.02,2.52,1.34,4.24,3.7,5.17,7.06,1.26-2.94,3.19-5.19,5.8-6.74,2.6-1.55,5.42-2.33,8.44-2.33,2.27,0,4.3,.32,6.11,.94,1.81,.63,3.38,1.75,4.73,3.34,1.34,1.6,2.37,3.76,3.09,6.49,.71,2.73,1.07,6.24,1.07,10.52v43.09h-15.12v-40.32c0-3.78-.61-6.43-1.83-7.94-1.22-1.51-2.71-2.27-4.47-2.27-1.51,0-2.82,.36-3.91,1.07-1.09,.71-1.85,1.87-2.27,3.46v45.99h-15.12ZM218.73,57.74c3.08-.59,6.47-1.04,10.18-1.38,3.7-.33,7.39-.5,11.05-.5s7.65,.31,11.5,.94c3.85,.62,7.31,1.87,10.4,3.74,3.08,1.87,5.59,4.47,7.54,7.81,1.94,3.34,2.92,7.68,2.92,13.04,0,4.69-.84,8.71-2.53,12.04-1.69,3.34-3.92,6.09-6.71,8.25-2.79,2.16-5.96,3.74-9.51,4.73-3.56,.99-7.24,1.49-11.06,1.49h-1.76c-.81,0-1.65-.02-2.53-.06-.88-.04-1.74-.09-2.58-.17-.84-.07-1.45-.15-1.81-.22v26.51h-15.07V57.74Zm22.44,11.11c-1.47,0-2.86,.06-4.18,.17s-2.38,.24-3.19,.39v24.97c.29,.07,.73,.15,1.32,.22,.59,.07,1.21,.13,1.87,.17,.66,.04,1.3,.05,1.92,.05h1.38c1.98,0,3.94-.18,5.89-.55,1.94-.37,3.69-1.04,5.23-2.04,1.54-.99,2.77-2.36,3.68-4.12,.92-1.76,1.38-4.07,1.38-6.93,0-2.42-.44-4.42-1.32-6-.88-1.58-2.04-2.84-3.46-3.79-1.43-.95-3.06-1.61-4.9-1.98-1.83-.37-3.7-.55-5.61-.55Zm39.82,53.02h13.64v-30.8h-13.64v-12.1h24.75l1.65,7.26h.44c2.05-2.42,4.4-4.44,7.04-6.05,2.64-1.61,5.72-2.42,9.24-2.42,4.4,0,7.87,1.61,10.39,4.84,2.53,3.23,3.79,8.62,3.79,16.17h-12.87c0-2.64-.39-4.56-1.16-5.77-.77-1.21-2-1.81-3.69-1.81-2.93,0-5.3,.73-7.09,2.2-1.8,1.47-3.32,3.15-4.56,5.06v23.43h23.87v12.1h-51.81v-12.1Zm65.56-15.4c0-4.62,.7-8.73,2.09-12.32,1.39-3.59,3.37-6.64,5.94-9.13,2.57-2.49,5.63-4.38,9.19-5.67,3.56-1.28,7.53-1.92,11.93-1.92,4.62,0,8.75,.7,12.38,2.09,3.63,1.39,6.69,3.35,9.18,5.89,2.49,2.53,4.38,5.59,5.67,9.19,1.28,3.59,1.93,7.55,1.93,11.88,0,4.62-.7,8.73-2.09,12.32-1.39,3.59-3.37,6.64-5.94,9.13-2.57,2.49-5.63,4.38-9.19,5.67-3.56,1.28-7.53,1.92-11.93,1.92-4.62,0-8.75-.7-12.38-2.09-3.63-1.39-6.69-3.35-9.18-5.89-2.49-2.53-4.38-5.59-5.67-9.19-1.28-3.59-1.93-7.55-1.93-11.88Zm14.74,0c0,2.42,.33,4.66,.99,6.71,.66,2.05,1.61,3.85,2.86,5.39,1.25,1.54,2.75,2.73,4.51,3.57,1.76,.84,3.78,1.27,6.05,1.27,4.25,0,7.72-1.36,10.39-4.07,2.68-2.71,4.02-7,4.02-12.87,0-5.06-1.25-9.15-3.74-12.27-2.49-3.12-6.05-4.67-10.67-4.67-2.05,0-3.96,.31-5.72,.94-1.76,.62-3.28,1.63-4.57,3.02-1.28,1.39-2.29,3.15-3.02,5.28-.73,2.13-1.1,4.69-1.1,7.7Zm73.92,27.5v-33.66c0-2.2-.15-3.98-.44-5.33-.29-1.36-.68-2.42-1.16-3.19-.48-.77-1.06-1.28-1.76-1.54-.7-.26-1.41-.38-2.15-.38-1.25,0-2.4,.4-3.46,1.21-1.06,.81-1.78,1.83-2.14,3.08v39.82h-13.2v-55h10.45l1.54,6.05h.33c1.1-2.13,2.71-3.87,4.84-5.22,2.13-1.36,4.62-2.04,7.48-2.04,2.42,0,4.73,.59,6.93,1.76,2.2,1.17,3.7,3.23,4.51,6.16,1.1-2.57,2.79-4.53,5.06-5.88,2.27-1.36,4.73-2.04,7.37-2.04,1.98,0,3.76,.27,5.33,.83,1.58,.55,2.95,1.52,4.12,2.91,1.17,1.39,2.07,3.28,2.7,5.67,.62,2.38,.93,5.45,.93,9.19v37.62h-13.2v-35.2c0-3.3-.53-5.61-1.59-6.93-1.06-1.32-2.37-1.98-3.91-1.98-1.32,0-2.46,.31-3.41,.94-.95,.62-1.61,1.63-1.98,3.02v40.15h-13.2Zm98.23-5.83c-.95,.88-2.18,1.74-3.69,2.58-1.5,.84-3.26,1.63-5.28,2.37-2.02,.73-4.24,1.32-6.66,1.76s-4.99,.66-7.7,.66c-4.69,0-8.89-.66-12.59-1.98-3.7-1.32-6.84-3.25-9.41-5.77-2.57-2.53-4.53-5.57-5.88-9.13-1.36-3.56-2.04-7.61-2.04-12.15,0-4.84,.77-9.08,2.31-12.71s3.65-6.65,6.33-9.07c2.68-2.42,5.81-4.24,9.41-5.45,3.59-1.21,7.48-1.81,11.66-1.81,2.79,0,5.67,.37,8.63,1.1,2.97,.73,5.7,2,8.2,3.79,2.49,1.8,4.53,4.2,6.1,7.21,1.58,3.01,2.37,6.82,2.37,11.44,0,3.15-.37,6.56-1.1,10.23h-39.6c.07,2.35,.57,4.33,1.49,5.94,.92,1.61,2.13,2.93,3.63,3.96,1.5,1.03,3.23,1.78,5.17,2.25,1.94,.48,4.01,.72,6.21,.72,4.4,0,8.01-.51,10.83-1.54,2.82-1.03,5.12-2.27,6.88-3.74l4.73,9.35Zm-23.76-39.27c-1.91,0-3.7,.26-5.39,.79-1.69,.52-3.21,1.29-4.56,2.3-1.36,1.01-2.48,2.26-3.36,3.75-.88,1.5-1.39,3.18-1.54,5.04h27.06c0-3.66-1.01-6.56-3.03-8.68-2.02-2.13-5.08-3.2-9.18-3.2Zm43.78,2.2h-10.89v-12.1h10.89v-12.54l14.3-4.07v16.61h28.82v12.1h-28.82v15.73c0,5.65,1.06,9.73,3.19,12.27,2.13,2.53,5.1,3.79,8.91,3.79,1.98,0,3.78-.24,5.39-.72,1.61-.48,3.06-1.08,4.34-1.81,1.28-.73,2.46-1.54,3.52-2.42,1.06-.88,2.04-1.69,2.92-2.42l6.6,9.9c-1.25,1.47-2.8,2.81-4.67,4.02s-3.89,2.27-6.05,3.19c-2.16,.92-4.42,1.63-6.76,2.15-2.35,.51-4.66,.77-6.93,.77-8.21,0-14.39-2.29-18.54-6.88-4.14-4.58-6.21-11.86-6.21-21.83v-15.73Zm53.24-34.1h22.22v28.16h.44c1.76-2.35,4.11-4.22,7.04-5.61,2.93-1.39,6.38-2.09,10.34-2.09,2.79,0,5.35,.37,7.7,1.1,2.35,.73,4.36,1.94,6.05,3.63,1.69,1.69,3.01,3.98,3.96,6.88,.95,2.9,1.43,6.47,1.43,10.73v34.21h-14.3v-31.24c0-4.47-.95-7.7-2.86-9.68-1.91-1.98-4.4-2.97-7.48-2.97-2.71,0-5.21,.83-7.48,2.48-2.27,1.65-3.89,3.76-4.84,6.33v35.09h-14.3V69.07h-7.92v-12.1Zm72.49,64.9h19.36v-30.8h-19.36v-12.1h33.66v42.9h20.35v12.1h-54.01v-12.1Zm16.72-57.86c0-2.27,.84-4.22,2.53-5.83,1.69-1.61,4.03-2.42,7.04-2.42s5.54,.81,7.37,2.42c1.83,1.61,2.75,3.56,2.75,5.83s-.92,4.27-2.75,5.77c-1.83,1.5-4.29,2.25-7.37,2.25s-5.35-.75-7.04-2.25c-1.69-1.5-2.53-3.43-2.53-5.77Zm79.09,14.96h20.46v42.9h8.36v12.1h-17.38l-2.53-8.14h-.44c-1.69,2.79-4.22,5.1-7.59,6.93-3.37,1.83-7.11,2.75-11.22,2.75-2.79,0-5.33-.37-7.64-1.1-2.31-.73-4.27-1.94-5.89-3.63-1.61-1.69-2.86-3.96-3.74-6.82-.88-2.86-1.32-6.45-1.32-10.78v-22.11h-6.27v-12.1h20.57v31.24c0,4.47,.71,7.7,2.15,9.68,1.43,1.98,3.68,2.97,6.76,2.97,2.71,0,5.15-.81,7.31-2.42,2.16-1.61,3.69-3.59,4.57-5.94v-23.43h-6.16v-12.1Zm56.21,55v-33.66c0-2.2-.15-3.98-.44-5.33-.29-1.36-.68-2.42-1.16-3.19-.48-.77-1.06-1.28-1.76-1.54-.7-.26-1.41-.38-2.15-.38-1.25,0-2.4,.4-3.46,1.21-1.06,.81-1.78,1.83-2.14,3.08v39.82h-13.2v-55h10.45l1.54,6.05h.33c1.1-2.13,2.71-3.87,4.84-5.22,2.13-1.36,4.62-2.04,7.48-2.04,2.42,0,4.73,.59,6.93,1.76,2.2,1.17,3.7,3.23,4.51,6.16,1.1-2.57,2.79-4.53,5.06-5.88,2.27-1.36,4.73-2.04,7.37-2.04,1.98,0,3.76,.27,5.33,.83,1.58,.55,2.95,1.52,4.12,2.91,1.17,1.39,2.07,3.28,2.7,5.67,.62,2.38,.93,5.45,.93,9.19v37.62h-13.2v-35.2c0-3.3-.53-5.61-1.59-6.93-1.06-1.32-2.37-1.98-3.91-1.98-1.32,0-2.46,.31-3.41,.94-.95,.62-1.61,1.63-1.98,3.02v40.15h-13.2Zm-642.2,22.11V32.92c0-18.18-14.74-32.92-32.92-32.92H32.92C14.74,0,0,14.74,0,32.92v123.16c0,18.18,14.74,32.92,32.92,32.92h123.16c18.18,0,32.92-14.74,32.92-32.92Z"/>
</svg>