<?xml version="1.0" encoding="UTF-8"?>
<svg id="Layer_1" data-name="Layer 1" xmlns="http://www.w3.org/2000/svg" xmlns:xlink="http://www.w3.org/1999/xlink" viewBox="0 0 978 220.6">
  <defs>
    <style>
      .cls-1 {
        fill: url(#linear-gradient);
      }
    </style>
    <linearGradient id="linear-gradient" x1="0" y1="110.3" x2="978" y2="110.3" gradientUnits="userSpaceOnUse">
      <stop offset="0" stop-color="#128040"/>
      <stop offset="1" stop-color="#0daa4b"/>
    </linearGradient>
  </defs>
  <path class="cls-1" d="M179.54,220.6H41.06c-22.68,0-41.06-18.38-41.06-41.06V41.06C0,18.38,18.38,0,41.06,0H179.54c22.68,0,41.06,18.38,41.06,41.06V179.54c0,22.68-18.38,41.06-41.06,41.06ZM26.97,158.81h20.59v-36.22c.5,.1,1.33,.2,2.48,.3,1.15,.1,2.33,.18,3.53,.23,1.2,.05,2.35,.08,3.46,.08h2.4c5.21,0,10.24-.68,15.11-2.03,4.86-1.35,9.19-3.51,13-6.46,3.81-2.95,6.86-6.71,9.17-11.27,2.3-4.56,3.46-10.05,3.46-16.46,0-7.31-1.33-13.25-3.98-17.81-2.66-4.56-6.09-8.12-10.3-10.67s-8.94-4.26-14.2-5.11c-5.26-.85-10.5-1.28-15.71-1.28s-10.05,.23-15.11,.68c-5.06,.45-9.69,1.08-13.9,1.88v104.16Zm38.33-88.23c2.5,.5,4.73,1.4,6.69,2.71,1.95,1.3,3.53,3.03,4.73,5.19,1.2,2.16,1.8,4.88,1.8,8.19,0,3.91-.63,7.06-1.88,9.47-1.25,2.4-2.93,4.28-5.04,5.64-2.1,1.35-4.49,2.28-7.14,2.78-2.66,.5-5.34,.75-8.04,.75h-1.88c-.85,0-1.73-.02-2.63-.08-.9-.05-1.75-.12-2.55-.23-.8-.1-1.4-.2-1.8-.3v-34.12c1.1-.2,2.55-.38,4.36-.53s3.71-.23,5.71-.23c2.6,0,5.16,.25,7.67,.75Zm95.14,88.23v-54.86c.5-1.9,1.4-3.28,2.71-4.13,1.3-.85,2.86-1.28,4.66-1.28,2.1,0,3.88,.9,5.34,2.71,1.45,1.8,2.18,4.96,2.18,9.47v48.1h18.04v-51.4c0-5.11-.43-9.29-1.28-12.55-.85-3.26-2.08-5.84-3.68-7.74-1.6-1.9-3.48-3.23-5.64-3.98-2.16-.75-4.58-1.13-7.29-1.13-3.61,0-6.97,.93-10.07,2.78-3.11,1.86-5.41,4.53-6.91,8.04-1.1-4.01-3.16-6.81-6.16-8.42-3.01-1.6-6.16-2.4-9.47-2.4-3.91,0-7.32,.93-10.22,2.78-2.91,1.86-5.11,4.23-6.61,7.14h-.45l-2.1-8.27h-14.28v75.15h18.04v-54.41c.5-1.7,1.48-3.11,2.93-4.21,1.45-1.1,3.03-1.65,4.73-1.65,1,0,1.98,.18,2.93,.53,.95,.35,1.75,1.05,2.41,2.1,.65,1.05,1.18,2.51,1.58,4.36,.4,1.86,.6,4.28,.6,7.29v45.99h18.04Zm100.88-86.5c3.4-.65,7.14-1.15,11.22-1.52,4.08-.36,8.15-.55,12.19-.55s8.43,.35,12.68,1.03c4.25,.69,8.07,2.06,11.47,4.13,3.4,2.06,6.17,4.93,8.31,8.61,2.14,3.68,3.22,8.47,3.22,14.38,0,5.18-.93,9.61-2.79,13.29-1.86,3.68-4.33,6.71-7.4,9.1-3.07,2.39-6.57,4.13-10.49,5.22-3.92,1.09-7.99,1.64-12.19,1.64h-1.94c-.89,0-1.82-.02-2.79-.06-.97-.04-1.92-.1-2.85-.18-.93-.08-1.6-.16-2-.24v29.24h-16.62V72.31Zm24.75,12.25c-1.62,0-3.15,.06-4.61,.18s-2.63,.26-3.52,.42v27.54c.32,.08,.81,.16,1.46,.24,.65,.08,1.33,.14,2.06,.18,.73,.04,1.44,.06,2.12,.06h1.52c2.18,0,4.35-.2,6.49-.61,2.14-.4,4.06-1.15,5.76-2.24s3.05-2.61,4.06-4.55c1.01-1.94,1.52-4.49,1.52-7.64,0-2.67-.49-4.87-1.46-6.61-.97-1.74-2.24-3.13-3.82-4.19-1.58-1.05-3.38-1.78-5.4-2.18-2.02-.4-4.09-.61-6.19-.61Zm43.92,58.48h15.05v-33.97h-15.05v-13.35h27.3l1.82,8.01h.49c2.26-2.67,4.85-4.89,7.77-6.67,2.91-1.78,6.31-2.67,10.19-2.67,4.85,0,8.67,1.78,11.47,5.34,2.79,3.56,4.19,9.51,4.19,17.84h-14.2c0-2.91-.42-5.04-1.27-6.37s-2.2-2-4.06-2c-3.24,0-5.84,.81-7.83,2.43-1.98,1.62-3.66,3.48-5.04,5.58v25.84h26.33v13.35h-57.15v-13.35Zm72.31-16.99c0-5.1,.77-9.63,2.31-13.59,1.54-3.96,3.72-7.32,6.55-10.07,2.83-2.75,6.21-4.83,10.13-6.25,3.92-1.41,8.31-2.12,13.16-2.12,5.1,0,9.65,.77,13.65,2.31,4,1.54,7.38,3.7,10.13,6.49,2.75,2.79,4.83,6.17,6.25,10.13,1.41,3.96,2.12,8.33,2.12,13.1,0,5.1-.77,9.63-2.31,13.59-1.54,3.96-3.72,7.32-6.55,10.07-2.83,2.75-6.21,4.83-10.13,6.25-3.92,1.41-8.31,2.12-13.16,2.12-5.1,0-9.65-.77-13.65-2.31-4-1.54-7.38-3.7-10.13-6.49-2.75-2.79-4.83-6.17-6.25-10.13-1.42-3.96-2.12-8.33-2.12-13.1Zm16.26,0c0,2.67,.36,5.14,1.09,7.4,.73,2.27,1.78,4.25,3.15,5.94,1.37,1.7,3.03,3.01,4.97,3.94,1.94,.93,4.16,1.39,6.67,1.39,4.69,0,8.51-1.5,11.47-4.49,2.95-2.99,4.43-7.72,4.43-14.2,0-5.58-1.38-10.09-4.13-13.53-2.75-3.44-6.67-5.16-11.77-5.16-2.27,0-4.37,.35-6.31,1.03-1.94,.69-3.62,1.8-5.04,3.34-1.42,1.54-2.53,3.48-3.34,5.82-.81,2.35-1.21,5.18-1.21,8.49Zm81.53,30.33v-37.13c0-2.43-.16-4.39-.48-5.88-.32-1.5-.75-2.67-1.27-3.52-.53-.85-1.17-1.41-1.94-1.7-.77-.28-1.56-.42-2.37-.42-1.38,0-2.65,.45-3.82,1.33-1.17,.89-1.96,2.02-2.37,3.4v43.92h-14.56v-60.66h11.53l1.7,6.67h.36c1.21-2.34,2.99-4.27,5.34-5.76,2.34-1.5,5.1-2.24,8.25-2.24,2.67,0,5.22,.65,7.64,1.94,2.43,1.29,4.08,3.56,4.98,6.79,1.21-2.83,3.07-4.99,5.58-6.49,2.51-1.5,5.22-2.24,8.13-2.24,2.18,0,4.14,.3,5.88,.91,1.74,.61,3.26,1.68,4.55,3.21,1.29,1.54,2.28,3.62,2.97,6.25,.69,2.63,1.03,6.01,1.03,10.13v41.49h-14.56v-38.83c0-3.64-.59-6.19-1.76-7.64-1.17-1.46-2.61-2.18-4.31-2.18-1.46,0-2.71,.34-3.76,1.03-1.05,.69-1.78,1.8-2.18,3.34v44.29h-14.56Zm108.35-6.43c-1.05,.97-2.41,1.92-4.07,2.85-1.66,.93-3.6,1.8-5.82,2.61-2.23,.81-4.67,1.46-7.34,1.94-2.67,.48-5.5,.73-8.49,.73-5.18,0-9.81-.73-13.89-2.18-4.09-1.46-7.54-3.58-10.37-6.37-2.83-2.79-5-6.15-6.49-10.07-1.5-3.92-2.24-8.39-2.24-13.41,0-5.34,.85-10.01,2.55-14.01s4.02-7.34,6.98-10.01c2.95-2.67,6.41-4.67,10.37-6.01,3.96-1.33,8.25-2,12.86-2,3.07,0,6.25,.41,9.52,1.21,3.28,.81,6.29,2.2,9.04,4.19,2.75,1.98,4.99,4.63,6.73,7.95,1.74,3.32,2.61,7.52,2.61,12.62,0,3.48-.41,7.24-1.21,11.28h-43.68c.08,2.59,.63,4.77,1.64,6.55,1.01,1.78,2.34,3.24,4,4.37,1.66,1.13,3.56,1.96,5.7,2.49,2.14,.53,4.43,.79,6.85,.79,4.85,0,8.84-.56,11.95-1.7,3.11-1.13,5.64-2.51,7.58-4.13l5.22,10.31Zm-26.21-43.32c-2.1,0-4.09,.29-5.95,.87-1.86,.58-3.54,1.42-5.03,2.53-1.5,1.11-2.73,2.49-3.7,4.14-.97,1.65-1.54,3.5-1.7,5.56h29.85c0-4.04-1.11-7.23-3.34-9.58-2.23-2.35-5.6-3.52-10.13-3.52Zm48.29,2.43h-12.01v-13.35h12.01v-13.83l15.77-4.49v18.32h31.79v13.35h-31.79v17.35c0,6.23,1.17,10.74,3.52,13.53,2.34,2.79,5.62,4.19,9.83,4.19,2.18,0,4.17-.26,5.94-.79,1.78-.53,3.38-1.19,4.79-2,1.41-.81,2.71-1.7,3.88-2.67,1.17-.97,2.24-1.86,3.22-2.67l7.28,10.92c-1.38,1.62-3.09,3.09-5.16,4.43s-4.29,2.51-6.67,3.52c-2.39,1.01-4.87,1.8-7.46,2.37-2.59,.57-5.14,.85-7.64,.85-9.06,0-15.87-2.53-20.44-7.58-4.57-5.05-6.85-13.08-6.85-24.08v-17.35Zm58.72-37.61h24.51v31.06h.49c1.94-2.59,4.53-4.65,7.77-6.19,3.23-1.54,7.04-2.31,11.4-2.31,3.07,0,5.9,.41,8.49,1.21,2.59,.81,4.81,2.14,6.67,4,1.86,1.86,3.32,4.39,4.37,7.58,1.05,3.2,1.58,7.14,1.58,11.83v37.73h-15.77v-34.46c0-4.93-1.05-8.49-3.15-10.68-2.1-2.18-4.85-3.28-8.25-3.28-2.99,0-5.74,.91-8.25,2.73-2.51,1.82-4.29,4.15-5.34,6.98v38.7h-15.77V84.8h-8.74v-13.35Zm137.59,78.5c-1.05,.97-2.41,1.92-4.07,2.85-1.66,.93-3.6,1.8-5.82,2.61-2.23,.81-4.67,1.46-7.34,1.94-2.67,.48-5.5,.73-8.49,.73-5.18,0-9.81-.73-13.89-2.18-4.09-1.46-7.54-3.58-10.37-6.37-2.83-2.79-5-6.15-6.49-10.07-1.5-3.92-2.24-8.39-2.24-13.41,0-5.34,.85-10.01,2.55-14.01s4.02-7.34,6.98-10.01c2.95-2.67,6.41-4.67,10.37-6.01,3.96-1.33,8.25-2,12.86-2,3.07,0,6.25,.41,9.52,1.21,3.28,.81,6.29,2.2,9.04,4.19,2.75,1.98,4.99,4.63,6.73,7.95,1.74,3.32,2.61,7.52,2.61,12.62,0,3.48-.41,7.24-1.21,11.28h-43.68c.08,2.59,.63,4.77,1.64,6.55,1.01,1.78,2.34,3.24,4,4.37,1.66,1.13,3.56,1.96,5.7,2.49,2.14,.53,4.43,.79,6.85,.79,4.85,0,8.84-.56,11.95-1.7,3.11-1.13,5.64-2.51,7.58-4.13l5.22,10.31Zm-26.21-43.32c-2.1,0-4.09,.29-5.95,.87-1.86,.58-3.54,1.42-5.03,2.53-1.5,1.11-2.73,2.49-3.7,4.14-.97,1.65-1.54,3.5-1.7,5.56h29.85c0-4.04-1.11-7.23-3.34-9.58-2.23-2.35-5.6-3.52-10.13-3.52Zm74.25-10.92h22.57v47.32h9.22v13.35h-19.17l-2.79-8.98h-.49c-1.86,3.08-4.65,5.62-8.37,7.64-3.72,2.02-7.85,3.03-12.38,3.03-3.08,0-5.88-.41-8.43-1.21-2.55-.81-4.71-2.14-6.49-4-1.78-1.86-3.15-4.37-4.12-7.52-.97-3.15-1.46-7.12-1.46-11.89v-24.39h-6.92v-13.35h22.69v34.46c0,4.93,.79,8.49,2.37,10.68,1.58,2.18,4.06,3.28,7.46,3.28,2.99,0,5.68-.89,8.07-2.67,2.39-1.78,4.07-3.96,5.04-6.55v-25.84h-6.79v-13.35Zm62,60.66v-37.13c0-2.43-.16-4.39-.48-5.88-.32-1.5-.75-2.67-1.27-3.52-.53-.85-1.17-1.41-1.94-1.7-.77-.28-1.56-.42-2.37-.42-1.38,0-2.65,.45-3.82,1.33-1.17,.89-1.96,2.02-2.37,3.4v43.92h-14.56v-60.66h11.53l1.7,6.67h.36c1.21-2.34,2.99-4.27,5.34-5.76,2.34-1.5,5.1-2.24,8.25-2.24,2.67,0,5.22,.65,7.64,1.94,2.43,1.29,4.08,3.56,4.98,6.79,1.21-2.83,3.07-4.99,5.58-6.49,2.51-1.5,5.22-2.24,8.13-2.24,2.18,0,4.14,.3,5.88,.91,1.74,.61,3.26,1.68,4.55,3.21,1.29,1.54,2.28,3.62,2.97,6.25,.69,2.63,1.03,6.01,1.03,10.13v41.49h-14.56v-38.83c0-3.64-.59-6.19-1.76-7.64-1.17-1.46-2.61-2.18-4.31-2.18-1.46,0-2.71,.34-3.76,1.03-1.05,.69-1.78,1.8-2.18,3.34v44.29h-14.56Z"/>
</svg>